<svg width="119" height="27" viewBox="0 0 119 27" fill="none" xmlns="http://www.w3.org/2000/svg">
<path d="M16.3908 0.904C16.7268 0.776 17.1988 0.711999 17.8068 0.711999C18.4148 0.711999 18.9588 0.751999 19.4388 0.831999C18.9428 4.512 18.5508 7.848 18.2628 10.84C17.9908 13.816 17.8388 15.384 17.8068 15.544C17.7908 15.704 17.7828 15.848 17.7828 15.976C17.7988 16.392 17.9988 16.6 18.3828 16.6C19.3428 16.6 20.6788 15.496 22.3908 13.288C22.6948 14.136 22.8708 14.704 22.9188 14.992C22.1508 16.208 21.2228 17.208 20.1348 17.992C19.0628 18.76 18.0468 19.144 17.0868 19.144C16.1268 19.144 15.4628 18.896 15.0948 18.4C14.7268 17.904 14.5428 17.352 14.5428 16.744C14.5428 16.6 14.5588 16.32 14.5908 15.904C14.6388 15.488 14.9588 12.896 15.5508 8.128L11.6148 17.224H9.57478L8.39878 8.272L6.71878 15.712C6.44678 16.896 5.99878 17.768 5.37478 18.328C4.76678 18.888 4.09478 19.168 3.35878 19.168C2.62278 19.168 2.02278 18.952 1.55878 18.52C1.06278 18.056 0.814781 17.4 0.814781 16.552C0.814781 14.856 2.12678 13.408 4.75078 12.208C6.17478 5.376 6.94278 1.592 7.05478 0.855999C7.43878 0.759999 7.95078 0.711999 8.59078 0.711999C9.24678 0.711999 9.69478 0.727999 9.93478 0.759999H10.1028L11.5908 11.92L16.3908 1.024V0.904ZM2.51878 16.144C2.51878 16.656 2.71878 16.912 3.11878 16.912C3.39078 16.912 3.61478 16.696 3.79078 16.264C4.01478 15.736 4.19878 15.04 4.34278 14.176C3.12678 14.864 2.51878 15.52 2.51878 16.144ZM24.9005 26.128C23.9885 26.128 23.2045 25.848 22.5485 25.288C21.8925 24.744 21.5645 23.944 21.5645 22.888C21.5645 21.592 22.2205 20.328 23.5325 19.096C22.6045 19.016 21.8605 18.712 21.3005 18.184C20.7405 17.656 20.4605 16.912 20.4605 15.952C20.4605 15.504 20.5165 14.832 20.6285 13.936C20.7405 13.04 20.8605 12.072 20.9885 11.032C21.1165 9.992 21.2525 8.888 21.3965 7.72C21.8925 7.544 22.3485 7.456 22.7645 7.456C23.1805 7.456 23.4925 7.472 23.7005 7.504C23.9085 7.536 24.1085 7.656 24.3005 7.864C24.4925 8.072 24.5885 8.368 24.5885 8.752L23.7965 14.872C23.7645 15.128 23.7485 15.304 23.7485 15.4C23.7485 16.344 24.1805 16.816 25.0445 16.816C25.8285 16.816 26.4685 16.448 26.9645 15.712C27.0125 15.344 27.1325 14.288 27.3245 12.544C27.5165 10.784 27.6765 9.416 27.8045 8.44C27.9485 8.136 28.2445 7.896 28.6925 7.72C29.1565 7.544 29.5325 7.456 29.8205 7.456C30.3325 7.456 30.7965 7.52 31.2125 7.648L30.0845 16.504C31.9565 16.84 33.0765 18.128 33.4445 20.368C33.3805 20.672 33.0765 21.152 32.5325 21.808C32.2125 19.808 31.3325 18.592 29.8925 18.16L29.5085 21.16C29.3325 22.6 28.8765 23.784 28.1405 24.712C27.4045 25.656 26.3245 26.128 24.9005 26.128ZM23.4365 22.432C23.4365 22.96 23.5645 23.352 23.8205 23.608C24.0765 23.864 24.4125 23.992 24.8285 23.992C25.2605 23.992 25.5885 23.816 25.8125 23.464C26.0365 23.112 26.2125 22.408 26.3405 21.352L26.6525 18.712C24.5565 19.8 23.4845 21.04 23.4365 22.432ZM32.6603 6.016C32.6603 4.496 33.3323 3.24 34.6763 2.248C36.0203 1.24 37.7963 0.735999 40.0043 0.735999C41.1723 0.735999 42.2203 0.855999 43.1483 1.096C44.0763 1.32 44.8123 1.608 45.3563 1.96C45.9003 2.312 46.3563 2.72 46.7243 3.184C47.3323 3.984 47.6283 4.88 47.6123 5.872C47.6123 6.848 47.2283 7.72 46.4603 8.488C45.6923 9.256 44.7643 9.656 43.6763 9.688C45.0363 9.784 46.2123 10.232 47.2043 11.032C48.2123 11.832 48.7163 12.84 48.7163 14.056C48.7163 15.656 48.1003 16.904 46.8683 17.8C45.6363 18.696 44.1323 19.144 42.3563 19.144C40.5963 19.144 39.3963 18.912 38.7563 18.448L39.5003 16.432C40.2043 16.8 41.0203 16.984 41.9483 16.984C42.8923 16.984 43.6603 16.712 44.2523 16.168C44.8443 15.608 45.1403 14.872 45.1403 13.96C45.1403 13.048 44.7323 12.28 43.9163 11.656C43.1163 11.032 42.0203 10.72 40.6283 10.72L40.8443 8.944C41.8043 8.944 42.6123 8.72 43.2683 8.272C43.9403 7.808 44.2843 7.12 44.3003 6.208C44.3323 5.296 43.9243 4.528 43.0763 3.904C42.1643 3.248 40.9163 2.92 39.3323 2.92C38.2923 2.92 37.2763 3.192 36.2843 3.736C35.2923 4.264 34.7963 4.976 34.7963 5.872C34.7963 6.304 34.9723 6.672 35.3243 6.976C35.6763 7.264 36.1403 7.44 36.7163 7.504L36.4523 9.28C35.2363 9.232 34.3003 8.888 33.6443 8.248C32.9883 7.608 32.6603 6.864 32.6603 6.016ZM39.5243 14.392C39.2683 16.104 38.7723 17.32 38.0363 18.04C37.3003 18.744 36.4363 19.096 35.4443 19.096C34.4523 19.096 33.7003 18.84 33.1883 18.328C32.6763 17.816 32.4203 17.16 32.4203 16.36C32.4203 14.472 33.8523 12.864 36.7163 11.536C36.7963 10.864 36.9083 9.96 37.0523 8.824C37.2123 7.672 37.3323 6.744 37.4123 6.04C37.5083 5.336 37.5723 4.872 37.6043 4.648C38.2603 4.232 39.0203 4.024 39.8843 4.024C40.2843 4.024 40.6683 4.064 41.0363 4.144L39.5243 14.392ZM34.1963 16.048C34.1963 16.624 34.4683 16.912 35.0123 16.912C35.2363 16.912 35.4683 16.768 35.7083 16.48C35.9643 16.176 36.1403 15.704 36.2363 15.064L36.4523 13.576C34.9483 14.424 34.1963 15.248 34.1963 16.048ZM55.7011 7.456C57.1731 7.456 58.3971 7.928 59.3731 8.872C60.3651 9.816 60.8611 10.968 60.8611 12.328C60.8611 14.392 60.2531 16.048 59.0371 17.296C57.8371 18.528 56.3811 19.144 54.6691 19.144C52.9571 19.144 51.5971 18.656 50.5891 17.68C49.5971 16.704 49.1011 15.496 49.1011 14.056C49.1011 12.04 49.7171 10.44 50.9491 9.256C52.1971 8.056 53.7811 7.456 55.7011 7.456ZM55.2211 9.4C54.4691 9.4 53.8371 9.832 53.3251 10.696C52.8131 11.56 52.5331 12.648 52.4851 13.96C52.4851 14.888 52.6691 15.656 53.0371 16.264C53.4211 16.872 53.9971 17.176 54.7651 17.176C55.5331 17.176 56.1731 16.752 56.6851 15.904C57.2131 15.056 57.4771 14.088 57.4771 13C57.4771 11.912 57.2931 11.048 56.9251 10.408C56.5571 9.736 55.9891 9.4 55.2211 9.4ZM71.5778 15.184C71.5778 16.336 72.0658 16.912 73.0418 16.912C73.0738 16.912 73.0978 16.912 73.1138 16.912C73.5618 16.912 73.9618 16.672 74.3138 16.192C74.6658 15.712 74.9298 15.112 75.1058 14.392C75.4898 12.92 75.6818 11.584 75.6818 10.384H75.4658C74.7938 10.384 74.2738 10.232 73.9058 9.928C73.5218 9.576 73.3298 9.152 73.3298 8.656C73.3298 8.16 73.4818 7.76 73.7858 7.456C74.1538 7.12 74.6098 6.952 75.1538 6.952C76.3378 6.952 77.1378 7.56 77.5538 8.776C78.6738 8.504 79.8578 8.128 81.1058 7.648V9.016C79.9218 9.464 78.8178 9.808 77.7938 10.048C77.8098 10.176 77.8178 10.36 77.8178 10.6C77.7538 13.912 76.9778 16.312 75.4898 17.8C74.6098 18.68 73.4658 19.12 72.0578 19.12C70.6658 19.12 69.6258 18.528 68.9378 17.344C68.1538 18.544 66.9538 19.144 65.3378 19.144C64.3778 19.144 63.5858 18.808 62.9618 18.136C62.3538 17.448 62.0498 16.64 62.0498 15.712C62.0498 15.552 62.0578 15.36 62.0738 15.136C62.4098 12.352 62.6898 9.888 62.9138 7.744C63.4898 7.552 63.9938 7.456 64.4258 7.456C65.5618 7.456 66.1298 7.848 66.1298 8.632C66.1298 8.936 66.0098 9.984 65.7698 11.776C65.4658 14.032 65.3138 15.304 65.3138 15.592C65.3138 15.864 65.4178 16.136 65.6258 16.408C65.8498 16.68 66.1618 16.816 66.5618 16.816C66.9778 16.816 67.3458 16.632 67.6658 16.264C67.9858 15.896 68.2178 15.448 68.3618 14.92L69.2018 7.744C69.7138 7.552 70.2578 7.456 70.8338 7.456C71.8738 7.456 72.3938 7.848 72.3938 8.632C72.3938 8.92 72.2818 9.856 72.0578 11.44C71.7378 13.68 71.5778 14.928 71.5778 15.184ZM74.6978 8.656C74.6978 8.928 74.9298 9.064 75.3938 9.064C75.4418 9.064 75.4898 9.064 75.5378 9.064C75.4258 8.632 75.2578 8.416 75.0338 8.416C74.8098 8.416 74.6978 8.496 74.6978 8.656ZM82.3478 19.168C81.3718 19.168 80.6038 18.896 80.0438 18.352C79.4838 17.792 79.2038 17.032 79.2038 16.072C79.2038 15.816 79.6358 12.016 80.4998 4.672C80.7238 2.784 81.3238 1.592 82.2998 1.096C82.7478 0.855999 83.2838 0.735999 83.9078 0.735999C86.0198 0.735999 87.0758 1.712 87.0758 3.664C87.0758 3.824 87.0678 3.992 87.0518 4.168C86.8918 6.312 85.5478 8.496 83.0198 10.72C82.9398 11.504 82.8518 12.264 82.7558 13C82.5638 14.648 82.4678 15.56 82.4678 15.736C82.4678 16.568 82.8278 16.984 83.5478 16.984C84.3318 16.984 85.0598 16.536 85.7318 15.64C86.4198 14.728 86.9478 13.568 87.3158 12.16C87.4598 12.208 87.6598 12.344 87.9158 12.568C88.1718 12.776 88.3478 12.96 88.4438 13.12C88.1878 14.448 87.6118 15.72 86.7158 16.936C86.2678 17.56 85.6998 18.072 85.0118 18.472C84.2278 18.936 83.3398 19.168 82.3478 19.168ZM83.2838 8.32C84.7558 6.704 85.4918 5.256 85.4918 3.976C85.4918 3.208 85.2038 2.824 84.6278 2.824C84.2598 2.856 84.0118 3.096 83.8838 3.544C83.7718 3.992 83.6598 4.72 83.5478 5.728C83.4518 6.736 83.3878 7.36 83.3558 7.6L83.2838 8.32ZM88.2918 1.336C88.6598 0.951999 89.1078 0.759999 89.6358 0.759999C90.1638 0.759999 90.6118 0.951999 90.9798 1.336C91.3638 1.704 91.5558 2.152 91.5558 2.68C91.5558 3.208 91.3638 3.656 90.9798 4.024C90.6118 4.392 90.1638 4.576 89.6358 4.576C89.1078 4.576 88.6598 4.392 88.2918 4.024C87.9238 3.656 87.7398 3.208 87.7398 2.68C87.7398 2.152 87.9238 1.704 88.2918 1.336ZM87.3078 8.368C87.4678 8.08 87.7718 7.864 88.2198 7.72C88.6678 7.56 89.1078 7.48 89.5398 7.48C89.9878 7.48 90.3798 7.536 90.7158 7.648C90.0918 12.464 89.7798 14.896 89.7798 14.944C89.6998 15.264 89.6598 15.536 89.6598 15.76C89.6598 15.968 89.6758 16.152 89.7078 16.312C89.7718 16.728 90.0598 16.936 90.5718 16.936C91.0998 16.936 91.5798 16.6 92.0118 15.928C92.4598 15.24 92.7958 14.464 93.0198 13.6C93.1318 13.664 93.3078 13.856 93.5478 14.176C93.7878 14.496 93.9318 14.736 93.9798 14.896C93.6598 16.176 93.1158 17.208 92.3478 17.992C91.5798 18.776 90.6598 19.168 89.5878 19.168C88.5158 19.168 87.7158 18.904 87.1878 18.376C86.6758 17.848 86.4198 17.168 86.4198 16.336C86.4198 16.16 86.4278 15.976 86.4438 15.784L87.3078 8.368ZM98.8625 16.312L99.4385 10.96C99.4385 10.528 99.3265 10.168 99.1025 9.88C98.8785 9.592 98.5025 9.448 97.9745 9.448C97.4625 9.448 97.0225 9.68 96.6545 10.144C96.3025 10.592 96.0785 11.16 95.9825 11.848C95.4065 16.232 95.1025 18.616 95.0705 19H91.8305L93.1505 7.696C93.8225 7.52 94.3345 7.432 94.6865 7.432C95.7585 7.432 96.3185 7.824 96.3665 8.608C97.1505 7.84 98.0865 7.456 99.1745 7.456C100.278 7.456 101.142 7.728 101.766 8.272C102.39 8.816 102.702 9.504 102.702 10.336C102.702 10.56 102.654 10.984 102.558 11.608C102.19 14.04 102.006 15.456 102.006 15.856C102.006 16.592 102.254 16.96 102.75 16.96C103.838 16.96 104.662 15.824 105.222 13.552C105.766 14.128 106.094 14.584 106.206 14.92C105.358 17.736 103.886 19.144 101.79 19.144C100.798 19.144 100.062 18.84 99.5825 18.232C99.1025 17.624 98.8625 16.984 98.8625 16.312ZM110.924 7.456C111.804 7.456 112.612 7.6 113.348 7.888C113.844 7.584 114.364 7.432 114.908 7.432C115.452 7.432 115.884 7.504 116.204 7.648L115.34 14.416C116.524 13.504 117.42 12.672 118.028 11.92L118.724 13.384C117.812 14.344 116.596 15.368 115.076 16.456L114.428 21.472C114.252 22.976 113.756 24.128 112.94 24.928C112.14 25.744 111.1 26.152 109.82 26.152C109.084 26.152 108.364 25.912 107.66 25.432C106.924 24.92 106.556 24.096 106.556 22.96C106.556 21.568 107.22 20.296 108.548 19.144C107.412 19.064 106.436 18.592 105.62 17.728C104.804 16.864 104.396 15.736 104.396 14.344C104.396 12.248 105.012 10.576 106.244 9.328C107.476 8.08 109.036 7.456 110.924 7.456ZM111.284 9.328C110.26 9.328 109.444 9.72 108.836 10.504C108.244 11.272 107.892 12.424 107.78 13.96C107.764 14.104 107.756 14.24 107.756 14.368C107.756 15.152 107.94 15.776 108.308 16.24C108.692 16.704 109.18 16.936 109.772 16.936C110.78 16.936 111.54 16.232 112.052 14.824L112.652 9.616C112.156 9.424 111.7 9.328 111.284 9.328ZM108.404 22.6C108.404 23.032 108.524 23.368 108.764 23.608C109.02 23.864 109.308 23.992 109.628 23.992C110.524 23.992 111.044 23.424 111.188 22.288L111.596 18.688C109.468 19.952 108.404 21.256 108.404 22.6Z" fill="black"/>
</svg>
