<?xml version="1.0" encoding="utf-8"?><!-- Uploaded to: SVG Repo, www.svgrepo.com, Generator: SVG Repo Mixer Tools -->
<svg fill="#000000" width="800px" height="800px" viewBox="0 0 24 24" id="bowling" data-name="Line Color" xmlns="http://www.w3.org/2000/svg" class="icon line-color"><path id="primary" d="M14,10.12V9.78a5.33,5.33,0,0,1,.67-2.42A2.94,2.94,0,0,0,15,5.47,3,3,0,0,0,9,6a2.9,2.9,0,0,0,.34,1.37A5.57,5.57,0,0,1,10,9.93h0a5.56,5.56,0,0,1-.9,3A7.93,7.93,0,0,0,8,17.05,8,8,0,0,0,9,21H15a8,8,0,0,0,1-3.95,7.79,7.79,0,0,0-1.2-4.31A4.72,4.72,0,0,1,14,10.12Z" style="fill: none; stroke: rgb(0, 0, 0); stroke-linecap: round; stroke-linejoin: round; stroke-width: 2;"></path></svg>